<?xml version="1.0" standalone="no"?>
<!DOCTYPE svg PUBLIC "-//W3C//DTD SVG 20010904//EN"
 "http://www.w3.org/TR/2001/REC-SVG-20010904/DTD/svg10.dtd">
<svg version="1.0" xmlns="http://www.w3.org/2000/svg"
 width="3018.000000pt" height="3018.000000pt" viewBox="0 0 3018.000000 3018.000000"
 preserveAspectRatio="xMidYMid meet">
<metadata>
Created by potrace 1.11, written by Peter Selinger 2001-2013
</metadata>
<g transform="translate(0.000000,3018.000000) scale(0.100000,-0.100000)"
fill="#000000" stroke="none">
<path d="M14877 29674 c-1 -2 -41 -5 -89 -8 -85 -5 -104 -7 -263 -27 -94 -12
-98 -13 -235 -38 -148 -28 -156 -30 -245 -52 -44 -12 -87 -22 -95 -24 -8 -2
-53 -16 -100 -30 -47 -15 -107 -33 -135 -42 -181 -55 -609 -250 -793 -360
-178 -107 -395 -256 -517 -354 -171 -139 -442 -396 -530 -503 -20 -25 -40 -44
-44 -42 -6 4 -241 74 -271 81 -8 2 -37 9 -65 15 -27 6 -58 13 -68 15 -10 2
-26 6 -35 9 -35 11 -279 53 -357 61 -33 4 -68 9 -77 10 -135 26 -668 26 -878
0 -19 -2 -60 -7 -90 -10 -103 -12 -294 -46 -420 -76 -47 -11 -93 -22 -104 -24
-45 -11 -140 -39 -255 -76 -525 -171 -1050 -476 -1466 -849 -78 -71 -294 -290
-356 -361 -71 -82 -233 -289 -248 -316 -6 -12 -17 -27 -24 -35 -22 -22 -125
-184 -204 -322 -152 -263 -285 -573 -371 -861 -22 -74 -77 -291 -86 -338 -8
-46 -26 -141 -30 -162 -2 -11 -7 -40 -11 -65 -3 -25 -9 -58 -11 -75 -3 -16 -7
-48 -9 -70 -14 -160 -18 -191 -21 -196 -2 -3 -16 -6 -31 -7 -15 -1 -39 -4 -52
-6 -13 -3 -49 -8 -80 -12 -45 -5 -288 -53 -351 -68 -323 -82 -575 -173 -845
-306 -319 -157 -553 -308 -835 -539 -118 -97 -382 -355 -487 -477 -201 -233
-419 -556 -548 -814 -55 -109 -125 -258 -125 -266 0 -2 -9 -26 -21 -52 -29
-64 -34 -77 -63 -157 -40 -111 -110 -336 -121 -393 -1 -9 -8 -35 -13 -57 -13
-49 -59 -275 -66 -330 -4 -22 -8 -58 -11 -80 -3 -22 -8 -56 -10 -75 -22 -170
-34 -604 -20 -745 2 -22 6 -74 10 -115 3 -41 7 -86 9 -100 2 -14 7 -52 11 -85
4 -33 8 -61 10 -63 2 -2 162 122 240 186 98 81 623 464 672 491 12 6 28 17 35
23 8 7 21 18 30 23 102 62 166 112 166 130 0 47 34 276 58 388 85 409 258 793
514 1142 160 218 365 426 577 588 38 29 70 54 73 57 9 10 174 116 210 136 19
10 42 24 50 31 29 23 256 132 368 177 112 45 348 122 406 132 17 3 58 11 91
19 57 12 81 17 173 31 20 3 47 7 60 9 155 26 554 26 742 0 91 -12 157 -23 190
-30 14 -4 34 -7 45 -9 38 -6 160 -38 223 -58 68 -22 79 -20 63 9 -21 37 -93
295 -116 418 -9 49 -33 215 -41 285 -16 134 -9 557 11 673 8 45 24 140 30 172
8 46 14 75 19 93 3 9 8 31 11 49 3 18 9 43 15 57 5 15 7 26 4 26 -4 0 -2 6 4
13 6 6 10 14 9 17 -5 31 115 344 190 495 208 416 474 741 838 1026 223 175
446 303 715 412 186 76 325 116 601 172 9 2 40 6 69 10 29 4 61 8 72 10 95 19
470 26 613 12 132 -13 155 -16 270 -37 153 -28 145 -26 247 -54 204 -55 404
-134 588 -229 89 -46 306 -176 340 -204 46 -37 164 -123 170 -123 3 0 22 35
42 78 203 431 526 819 928 1114 246 181 554 336 850 429 58 18 110 34 115 35
6 2 19 5 30 8 49 12 203 45 230 50 98 15 177 26 225 32 89 10 437 12 535 3 84
-8 108 -11 195 -24 19 -3 49 -7 65 -10 26 -3 69 -11 152 -29 83 -18 331 -92
388 -116 11 -5 70 -30 130 -56 118 -50 257 -121 364 -186 66 -41 252 -167 261
-178 3 -3 25 -21 50 -40 164 -127 385 -355 518 -535 28 -38 55 -74 60 -80 49
-62 166 -261 232 -394 28 -56 54 -101 58 -101 4 0 18 10 32 23 14 12 63 50
110 83 312 221 642 372 1020 468 109 28 310 60 445 72 152 14 587 6 615 -11 3
-2 37 -6 75 -10 39 -4 73 -9 77 -12 4 -2 20 -6 35 -8 109 -15 363 -85 504
-140 395 -154 740 -376 1029 -665 114 -114 133 -135 220 -240 166 -200 335
-483 435 -730 57 -140 111 -299 131 -385 1 -5 9 -41 19 -80 20 -87 32 -150 41
-212 3 -26 8 -56 9 -65 2 -9 6 -48 10 -85 3 -37 8 -86 11 -108 5 -50 5 -358 0
-405 -3 -19 -7 -66 -11 -105 -3 -38 -8 -77 -10 -85 -2 -8 -6 -37 -10 -65 -14
-115 -94 -431 -132 -522 -7 -18 -11 -33 -9 -33 2 0 32 9 67 19 70 21 113 32
144 38 11 2 36 8 55 13 19 5 51 12 70 15 19 3 60 10 90 15 236 40 622 47 840
15 14 -2 45 -6 70 -10 25 -3 77 -13 115 -20 39 -8 81 -16 95 -19 14 -2 61 -14
105 -26 288 -77 559 -194 794 -341 51 -33 95 -59 97 -59 6 0 165 -120 249
-188 106 -86 311 -294 407 -412 324 -401 546 -900 624 -1404 3 -21 7 -47 9
-57 2 -11 7 -56 11 -102 3 -45 9 -86 11 -90 3 -4 72 -54 155 -110 195 -132
346 -237 375 -262 6 -5 27 -20 45 -33 93 -65 299 -223 451 -345 60 -49 111
-87 112 -85 2 2 9 44 15 93 6 50 13 104 15 120 22 150 23 700 1 825 -2 14 -7
52 -11 85 -11 105 -44 296 -70 410 -14 61 -28 120 -31 133 -7 37 -73 251 -103
337 -115 328 -303 694 -507 986 -80 113 -228 307 -244 319 -4 3 -26 28 -50 55
-64 76 -166 180 -276 283 -131 123 -127 120 -219 194 -389 316 -827 556 -1300
714 -148 49 -349 106 -420 117 -16 3 -55 11 -85 17 -30 7 -64 13 -75 15 -11 2
-47 8 -80 13 -33 6 -82 14 -110 17 -72 9 -84 11 -89 16 -2 2 -7 40 -10 84 -8
101 -25 234 -40 315 -3 14 -8 43 -11 65 -8 57 -62 290 -86 371 -11 38 -22 76
-24 84 -9 39 -95 281 -129 365 -22 51 -26 62 -77 170 -23 50 -43 92 -44 95 -6
28 -183 338 -242 425 -18 28 -39 58 -46 69 -38 58 -170 233 -230 306 -376 453
-842 823 -1357 1078 -74 36 -137 67 -140 67 -3 1 -23 9 -45 19 -279 123 -664
239 -940 282 -16 3 -57 10 -90 15 -33 6 -80 13 -105 15 -25 2 -61 6 -80 9
-205 26 -746 26 -888 1 -9 -2 -44 -7 -77 -10 -88 -10 -274 -44 -400 -72 -123
-28 -351 -92 -377 -105 -13 -7 -27 3 -65 43 -51 56 -265 269 -329 329 -110
102 -441 359 -463 359 -5 0 -11 4 -13 8 -3 8 -244 162 -254 162 -2 0 -23 12
-46 26 -44 28 -253 134 -353 179 -33 14 -69 31 -80 36 -183 83 -560 198 -810
248 -162 32 -252 47 -345 57 -25 2 -65 6 -90 9 -138 14 -206 17 -413 19 -125
1 -229 1 -230 0z"/>
<path d="M8770 21974 c-214 -62 -376 -112 -545 -167 -66 -21 -127 -40 -135
-42 -54 -12 -817 -286 -905 -325 -11 -5 -78 -32 -150 -61 -71 -28 -143 -57
-160 -64 -16 -7 -86 -37 -155 -65 -115 -48 -189 -81 -296 -131 -22 -10 -43
-19 -46 -19 -3 0 -59 -25 -124 -56 -66 -31 -148 -70 -184 -86 -86 -39 -488
-241 -565 -283 -33 -18 -98 -53 -145 -78 -72 -38 -165 -89 -245 -135 -24 -13
-346 -202 -392 -228 -127 -76 -243 -151 -483 -310 -151 -101 -303 -204 -337
-228 -145 -103 -542 -403 -563 -426 -3 -3 -25 -21 -50 -40 -48 -37 -198 -161
-295 -245 -33 -29 -73 -63 -88 -76 -16 -13 -46 -40 -66 -59 -21 -19 -75 -69
-121 -110 -168 -150 -597 -585 -750 -759 -30 -35 -62 -71 -71 -80 -25 -26
-179 -209 -249 -296 -36 -44 -70 -87 -77 -95 -259 -314 -692 -958 -881 -1312
-23 -43 -61 -113 -84 -155 -57 -106 -52 -97 -102 -200 -159 -325 -309 -726
-386 -1033 -21 -85 -41 -167 -44 -183 -3 -15 -10 -55 -16 -90 -7 -34 -13 -71
-14 -82 -4 -26 -17 -112 -22 -145 -24 -155 -24 -625 1 -745 3 -11 7 -38 10
-60 5 -34 38 -197 50 -245 52 -210 173 -481 301 -677 177 -270 434 -526 712
-709 37 -24 72 -47 77 -52 59 -47 359 -196 530 -265 140 -55 393 -137 465
-150 14 -3 57 -12 95 -21 85 -20 114 -27 140 -31 108 -18 220 -35 265 -40 30
-4 69 -8 85 -10 183 -24 594 -24 840 0 46 4 71 7 175 21 30 4 206 36 265 48
11 2 67 16 125 31 555 141 1011 401 1326 755 57 66 145 165 172 198 11 12 48
54 82 92 34 38 71 80 82 92 45 53 377 420 392 433 6 6 28 29 49 52 l39 41 4
188 c5 258 12 438 30 699 11 174 13 201 19 270 4 39 8 95 11 125 3 48 11 129
30 305 8 84 24 217 29 255 2 14 6 48 10 75 3 28 8 61 10 75 2 14 9 62 15 107
6 46 13 95 15 110 3 29 23 149 30 192 2 13 7 45 11 70 7 57 10 75 29 181 8 47
17 99 20 115 3 17 10 53 16 81 5 28 12 64 15 80 4 25 42 219 49 249 2 13 17
85 20 105 2 8 8 35 14 60 10 44 47 214 55 255 33 159 161 654 248 955 32 113
60 210 62 215 20 74 35 121 73 240 78 243 188 570 251 740 65 179 164 436 177
462 8 16 15 36 15 45 0 9 4 19 9 22 5 3 12 18 16 33 3 15 15 45 25 68 10 22
54 126 98 230 44 105 96 224 115 265 34 75 56 121 117 255 41 90 272 552 335
670 71 133 231 417 292 519 29 49 53 90 53 91 0 4 128 209 175 280 18 28 63
97 101 155 78 118 79 120 67 119 -4 -1 -91 -25 -193 -55z"/>
<path d="M21210 22026 c0 -4 18 -31 40 -61 22 -30 45 -66 52 -80 6 -14 15 -25
20 -25 4 0 8 -4 8 -10 0 -5 33 -60 73 -122 118 -182 318 -521 427 -723 24 -44
52 -96 63 -115 11 -19 81 -156 157 -305 118 -234 170 -343 311 -650 54 -118
198 -463 264 -630 37 -93 73 -183 80 -200 29 -66 182 -494 256 -715 104 -310
155 -474 234 -755 19 -66 39 -133 44 -150 6 -16 17 -57 25 -90 8 -33 42 -166
76 -295 33 -129 63 -248 66 -264 3 -16 7 -32 9 -36 2 -3 6 -17 9 -31 2 -13 19
-87 36 -164 37 -166 34 -153 61 -279 11 -56 23 -112 25 -126 2 -14 7 -36 10
-50 3 -14 8 -36 10 -50 3 -14 9 -47 14 -75 17 -82 19 -95 36 -190 2 -11 11
-63 20 -115 8 -52 17 -106 20 -120 2 -14 7 -41 10 -60 3 -19 7 -46 10 -60 2
-14 7 -45 10 -70 3 -25 8 -54 10 -65 2 -11 6 -40 10 -65 3 -25 9 -70 14 -100
5 -30 12 -77 15 -105 3 -27 8 -63 10 -80 9 -63 35 -282 40 -335 3 -30 8 -75
10 -100 13 -117 15 -140 20 -210 3 -41 7 -91 10 -110 2 -19 7 -73 10 -120 3
-47 7 -114 10 -150 2 -36 7 -114 10 -175 3 -60 8 -150 10 -200 3 -49 8 -188
10 -308 l4 -217 44 -48 c97 -103 130 -139 281 -307 55 -60 116 -128 135 -150
37 -40 305 -345 351 -399 83 -96 210 -213 320 -295 30 -22 60 -44 65 -48 6 -4
35 -24 65 -44 358 -233 863 -406 1360 -464 30 -4 69 -8 85 -10 142 -18 463
-24 675 -12 120 7 153 10 248 22 111 14 138 18 157 21 11 3 36 7 55 10 19 3
78 14 130 26 52 11 113 24 135 29 105 21 418 121 500 159 11 5 49 21 85 36
242 99 546 284 761 464 81 67 246 235 316 320 135 165 289 425 358 605 67 173
123 378 141 513 3 26 8 55 10 65 25 134 25 584 0 757 -2 14 -7 46 -10 70 -3
25 -8 56 -11 70 -7 42 -13 73 -20 115 -12 71 -76 328 -103 415 -14 47 -27 90
-29 95 -30 105 -176 477 -248 630 -118 253 -301 594 -400 750 -18 28 -58 93
-90 145 -229 375 -632 917 -947 1274 -300 339 -682 723 -993 997 -27 24 -52
46 -55 49 -3 3 -52 45 -110 93 -58 49 -114 97 -125 107 -113 101 -556 438
-800 608 -88 62 -164 115 -170 120 -11 8 -67 45 -235 154 -257 167 -628 390
-820 493 -36 20 -92 50 -125 69 -164 92 -539 283 -770 391 -136 65 -355 165
-360 165 -1 0 -41 17 -87 38 -45 21 -146 65 -223 97 -77 32 -156 65 -175 73
-19 9 -55 23 -80 33 -25 9 -110 43 -190 74 -489 192 -1198 429 -1630 545 -58
16 -113 32 -122 35 -10 4 -18 4 -18 1z"/>
<path d="M11781 21485 c-72 -73 -186 -163 -278 -218 -216 -131 -538 -241 -798
-273 -27 -4 -53 -8 -57 -10 -9 -6 -222 -18 -313 -18 -122 0 -279 12 -385 28
-132 20 -145 23 -227 44 l-73 18 -104 -145 c-356 -499 -657 -1010 -971 -1646
-202 -409 -289 -604 -442 -980 -68 -168 -222 -569 -228 -595 -2 -8 -11 -35
-20 -60 -144 -387 -410 -1272 -480 -1594 -4 -20 -53 -226 -61 -256 -8 -34 -45
-200 -60 -270 -9 -41 -17 -82 -19 -90 -13 -60 -75 -383 -79 -414 -4 -21 -8
-48 -11 -60 -6 -25 -13 -68 -21 -116 -2 -19 -9 -57 -14 -85 -5 -27 -12 -68
-15 -90 -3 -23 -7 -51 -10 -64 -2 -13 -7 -49 -11 -80 -3 -31 -8 -58 -9 -61 -2
-3 -6 -30 -9 -60 -4 -30 -9 -66 -11 -80 -3 -14 -7 -47 -10 -75 -3 -27 -8 -61
-10 -75 -2 -14 -7 -47 -9 -75 -3 -27 -7 -66 -10 -85 -9 -64 -17 -132 -21 -184
-5 -56 -14 -152 -20 -206 -2 -19 -7 -71 -10 -115 -4 -44 -8 -100 -10 -125 -42
-541 -50 -1298 -20 -1795 12 -192 23 -335 30 -395 3 -25 7 -65 9 -90 10 -109
18 -187 21 -210 2 -14 7 -52 11 -85 3 -33 8 -67 9 -76 2 -9 6 -40 10 -70 3
-30 13 -94 20 -144 8 -49 17 -108 20 -130 3 -22 8 -51 11 -65 3 -14 8 -40 10
-59 8 -60 83 -425 119 -578 33 -142 46 -194 81 -320 8 -32 17 -66 19 -76 19
-84 162 -521 235 -717 56 -148 138 -349 194 -473 14 -31 26 -59 26 -62 0 -3
46 -96 102 -207 281 -561 581 -1016 968 -1467 36 -42 83 -96 105 -121 66 -74
395 -401 465 -462 36 -31 79 -68 95 -83 124 -110 436 -352 555 -430 25 -17 47
-33 48 -37 2 -5 8 -8 13 -8 10 0 103 -62 107 -72 2 -5 8 -8 13 -8 9 0 111 -63
181 -111 15 -11 30 -19 33 -19 3 0 23 -11 44 -24 133 -84 472 -257 706 -361
181 -79 176 -78 245 -105 30 -11 64 -25 75 -30 36 -16 348 -127 445 -158 248
-79 708 -202 885 -236 11 -2 79 -16 150 -30 72 -13 146 -28 165 -31 19 -3 42
-8 50 -10 8 -2 37 -6 64 -10 27 -3 52 -8 55 -9 3 -2 31 -7 62 -10 31 -4 67 -9
80 -11 12 -3 59 -9 103 -15 45 -6 96 -13 114 -15 18 -3 54 -7 80 -10 124 -14
149 -17 172 -20 14 -2 63 -6 110 -10 47 -4 99 -8 115 -10 17 -2 77 -7 135 -11
58 -4 123 -8 145 -9 353 -24 1002 -24 1265 0 25 2 88 7 140 10 52 3 111 8 130
10 19 2 71 6 114 10 43 4 87 8 97 10 10 2 49 6 86 10 37 3 79 8 93 10 14 2 52
6 85 10 33 3 67 8 75 10 8 2 36 6 63 9 100 12 142 18 147 21 3 2 30 6 60 10
30 3 73 10 95 15 22 5 58 11 80 14 40 6 64 10 115 21 14 2 39 7 55 10 17 3
111 23 210 45 99 22 191 43 205 45 14 3 39 10 57 16 17 5 43 12 56 14 63 12
403 113 590 175 768 258 1438 605 2042 1059 110 83 101 76 201 158 39 32 85
70 103 85 162 132 536 505 702 698 555 648 981 1381 1298 2233 110 293 245
733 301 977 5 19 11 44 13 55 58 228 115 526 182 945 2 14 7 50 10 80 3 30 8
62 10 70 2 8 7 44 10 80 4 36 8 72 10 80 1 8 6 47 9 85 4 39 9 86 11 105 3 19
7 67 10 105 4 39 8 86 10 105 1 19 6 87 10 150 4 63 8 131 10 150 10 101 18
453 18 745 0 358 -8 619 -27 915 -4 52 -9 124 -11 160 -2 36 -6 88 -9 115 -3
28 -7 79 -11 115 -6 74 -14 159 -20 210 -3 19 -7 62 -10 95 -4 33 -8 71 -10
85 -2 14 -7 50 -10 80 -3 30 -8 66 -10 80 -15 122 -26 199 -29 220 -6 30 -13
80 -21 140 -3 25 -7 52 -9 60 -1 8 -6 38 -10 65 -35 227 -135 759 -177 935 -6
25 -13 56 -15 70 -3 14 -14 63 -25 110 -11 47 -23 96 -25 110 -3 14 -17 70
-30 125 -14 55 -27 107 -29 115 -5 23 -105 399 -120 450 -7 25 -22 77 -33 115
-66 229 -255 820 -281 880 -5 11 -35 92 -66 180 -201 565 -573 1408 -825 1870
-15 28 -46 86 -70 130 -139 258 -343 599 -508 850 -107 162 -311 453 -346 492
-1 2 -18 -2 -37 -8 -19 -5 -41 -12 -49 -14 -8 -2 -49 -13 -90 -24 -41 -11 -88
-23 -105 -26 -16 -2 -39 -7 -50 -9 -64 -12 -115 -19 -255 -32 -211 -21 -493
-3 -739 46 -311 63 -679 237 -858 407 l-24 23 -10 -28 c-6 -15 -22 -58 -36
-97 -81 -224 -256 -520 -431 -725 -69 -81 -257 -269 -338 -339 -300 -257 -706
-484 -1114 -622 -88 -30 -307 -94 -350 -103 -14 -2 -68 -14 -120 -25 -87 -19
-228 -41 -340 -55 -133 -16 -251 -21 -490 -20 -238 1 -326 4 -440 19 -19 2
-57 7 -85 10 -27 3 -63 9 -80 12 -16 3 -39 7 -50 9 -31 4 -89 14 -105 19 -8 2
-31 7 -50 10 -128 22 -514 138 -617 185 -24 11 -46 20 -50 20 -7 0 -21 6 -205
94 -125 59 -301 160 -408 234 -91 63 -164 115 -170 122 -3 3 -25 21 -50 40
-140 108 -337 307 -478 486 -32 39 -165 239 -193 289 -87 155 -201 427 -224
533 -3 17 -10 32 -13 32 -4 0 -36 -30 -71 -65z m-16 -5344 c13 -1 13 -5 -1
-38 -17 -40 -70 -193 -72 -206 -1 -6 -8 -46 -28 -142 -17 -87 -11 -347 11
-464 3 -14 8 -39 11 -56 10 -58 64 -207 104 -286 97 -195 242 -352 410 -447
70 -39 174 -79 231 -87 24 -4 47 -9 51 -11 11 -7 167 -6 213 1 177 27 327 101
463 230 39 36 72 62 75 58 6 -10 15 -54 23 -108 3 -22 7 -51 9 -65 25 -145 25
-502 1 -636 -2 -11 -7 -41 -10 -69 -12 -88 -64 -287 -102 -390 -20 -55 -41
-115 -48 -132 -6 -18 -14 -33 -18 -33 -5 0 -8 -6 -8 -14 0 -18 -71 -151 -128
-241 -267 -419 -665 -689 -1092 -741 -103 -12 -364 -5 -391 12 -4 2 -23 6 -44
10 -120 19 -335 112 -480 208 -83 56 -261 207 -288 246 -8 11 -30 37 -48 58
-19 20 -45 53 -59 72 -13 19 -27 37 -30 40 -20 18 -119 185 -169 285 -96 193
-174 440 -197 620 -3 22 -7 46 -10 53 -24 75 -24 601 1 675 2 7 6 28 9 47 3
19 12 69 21 110 9 41 18 83 20 92 2 9 24 77 48 150 182 543 564 965 1021 1125
90 31 215 61 296 69 36 3 66 7 67 8 2 1 115 -1 138 -3z m7047 0 c14 -1 14 -5
-4 -43 -25 -52 -67 -172 -74 -213 -3 -16 -9 -46 -14 -65 -5 -19 -12 -69 -16
-110 -41 -408 81 -792 330 -1045 34 -34 79 -75 101 -91 22 -16 45 -34 51 -40
23 -21 180 -92 239 -107 83 -22 129 -28 210 -28 85 0 129 6 220 33 129 38 245
106 351 207 36 35 67 61 70 58 5 -4 28 -139 41 -242 9 -67 9 -444 0 -515 -9
-73 -18 -134 -22 -150 -2 -8 -7 -35 -10 -60 -4 -24 -9 -48 -12 -53 -3 -4 -7
-23 -10 -40 -11 -70 -98 -309 -157 -432 -63 -129 -168 -297 -243 -385 -46 -56
-184 -194 -238 -239 -145 -122 -425 -264 -565 -287 -14 -3 -31 -7 -39 -10 -41
-14 -189 -29 -276 -28 -94 1 -258 19 -276 30 -3 2 -20 6 -37 9 -73 12 -247 80
-314 122 -21 13 -40 23 -43 23 -11 0 -155 101 -215 151 -263 218 -480 554
-591 914 -26 84 -67 260 -75 320 -3 28 -8 59 -10 70 -22 111 -21 515 1 620 2
11 7 36 9 55 68 480 334 970 676 1246 19 16 37 32 40 35 3 4 43 31 90 62 201
131 412 206 625 223 39 3 71 7 72 8 2 1 84 0 115 -3z"/>
<path d="M3947 10554 c-1 -2 -25 -5 -52 -9 -28 -3 -63 -8 -80 -10 -28 -4 -73
-9 -170 -20 -173 -19 -591 -26 -792 -12 -102 7 -103 6 -104 -16 0 -12 -2 -29
-4 -37 -3 -13 -8 -49 -20 -130 -11 -77 -15 -112 -20 -175 -3 -38 -8 -95 -11
-125 -7 -71 -7 -452 0 -550 32 -432 144 -920 291 -1265 7 -16 23 -54 35 -84
164 -400 464 -858 790 -1204 478 -509 1081 -892 1741 -1107 106 -34 369 -104
434 -116 11 -2 34 -6 50 -9 119 -21 208 -35 255 -41 77 -9 79 -10 84 -15 2 -2
7 -40 11 -84 3 -44 8 -91 10 -105 2 -14 7 -49 10 -79 4 -30 8 -61 10 -70 1 -9
6 -36 10 -61 95 -582 336 -1177 673 -1665 59 -85 180 -247 191 -255 4 -3 17
-18 29 -34 93 -122 364 -397 507 -516 323 -269 650 -477 985 -624 58 -26 114
-51 125 -56 61 -29 361 -129 490 -165 108 -29 262 -64 353 -80 17 -3 47 -8 65
-11 17 -3 46 -7 62 -9 17 -1 46 -5 65 -8 234 -41 762 -44 1040 -7 36 5 88 12
115 15 141 18 451 89 622 143 l93 30 33 -42 c107 -130 379 -385 568 -532 274
-214 680 -456 932 -555 28 -11 69 -28 91 -38 160 -73 515 -182 731 -225 44 -9
91 -19 105 -21 50 -11 216 -35 275 -41 33 -3 65 -7 72 -9 54 -17 580 -25 748
-12 88 8 114 10 225 22 73 8 217 31 310 49 103 21 111 23 183 41 34 9 72 18
83 21 46 9 194 55 304 94 63 22 120 42 125 44 6 2 19 7 30 11 11 4 58 24 105
42 126 51 399 189 530 268 376 226 727 515 1011 831 l46 51 69 -23 c66 -22
353 -98 405 -107 64 -12 114 -21 119 -22 3 -1 28 -5 55 -10 28 -4 57 -9 65
-10 9 -2 43 -6 75 -10 33 -4 71 -9 85 -11 157 -25 737 -25 902 1 12 2 50 6 83
10 32 4 68 9 79 11 21 4 87 14 121 19 68 10 250 52 365 84 41 12 84 24 95 26
48 11 309 106 425 155 120 51 419 200 450 224 8 6 31 20 50 30 67 37 306 197
381 257 219 171 252 201 449 399 370 371 666 814 874 1307 88 211 188 529 226
718 5 28 12 61 15 75 3 14 7 39 10 55 3 17 7 41 10 55 8 42 14 83 20 135 3 28
7 59 9 70 2 11 7 61 11 110 4 50 9 92 11 94 5 5 18 8 85 15 464 53 1005 230
1464 481 432 236 896 622 1191 990 27 33 51 62 54 65 17 15 161 216 224 313
149 229 281 482 376 722 57 143 152 434 166 509 2 11 6 33 10 48 3 15 6 31 6
35 0 5 4 15 8 23 4 8 11 31 14 50 3 19 8 46 11 60 6 30 32 188 40 250 3 25 8
56 10 70 5 35 14 131 21 220 7 90 7 461 0 545 -7 88 -16 176 -21 210 -2 17 -7
53 -10 80 -3 28 -7 59 -9 70 -2 11 -7 44 -11 73 l-7 52 -97 -7 c-128 -9 -615
-9 -716 0 -44 4 -107 10 -140 13 -33 2 -91 9 -130 15 -38 5 -86 12 -106 14
l-37 5 20 -73 c21 -82 42 -187 62 -312 6 -40 19 -151 22 -195 4 -55 4 -402 0
-435 -3 -16 -7 -61 -11 -100 -3 -38 -8 -77 -10 -85 -2 -8 -6 -37 -10 -65 -3
-27 -10 -68 -15 -90 -5 -22 -12 -56 -15 -75 -18 -104 -96 -352 -159 -503 -45
-109 -125 -270 -177 -355 -21 -35 -39 -65 -39 -67 0 -2 -25 -40 -56 -86 -379
-560 -920 -969 -1550 -1172 -124 -40 -312 -87 -399 -101 -92 -14 -122 -19
-136 -21 -135 -25 -617 -25 -759 -1 -14 3 -70 12 -125 21 -90 15 -333 73 -378
90 -16 7 -16 4 -6 -21 31 -80 100 -330 114 -417 3 -17 8 -39 10 -47 2 -8 7
-40 10 -70 4 -30 8 -57 10 -60 18 -30 27 -525 12 -675 -21 -215 -59 -406 -122
-605 -300 -950 -1046 -1681 -2000 -1960 -77 -22 -156 -43 -175 -46 -19 -3 -43
-7 -52 -10 -9 -3 -27 -7 -40 -9 -13 -3 -34 -7 -48 -10 -14 -2 -47 -7 -75 -11
-27 -3 -58 -8 -67 -9 -144 -28 -604 -25 -778 5 -30 5 -75 12 -100 15 -24 4
-47 8 -50 10 -3 2 -23 6 -44 9 -230 37 -604 178 -866 329 -145 83 -368 236
-378 259 -11 24 -33 -6 -84 -110 -422 -869 -1298 -1495 -2263 -1617 -240 -30
-581 -28 -803 5 -101 15 -254 46 -322 64 -8 3 -40 11 -70 19 -344 93 -740 297
-1040 538 -97 78 -308 280 -392 375 -75 86 -241 313 -284 389 -6 11 -28 49
-49 85 -20 36 -57 106 -82 155 -24 50 -48 94 -53 99 -5 5 -29 -8 -57 -31 -156
-130 -387 -266 -667 -393 -47 -21 -328 -118 -364 -125 -9 -2 -53 -12 -97 -23
-44 -11 -127 -28 -185 -37 -58 -10 -113 -19 -123 -21 -134 -25 -597 -24 -749
1 -13 2 -41 6 -63 10 -302 43 -601 138 -880 277 -132 66 -148 75 -285 162
-520 330 -953 863 -1167 1436 -75 201 -135 430 -158 603 -3 18 -7 42 -9 53
-20 100 -29 536 -13 679 5 39 10 90 13 115 3 25 7 52 9 60 2 8 7 38 11 65 3
28 8 53 10 56 2 3 6 21 9 40 10 55 62 248 89 327 22 65 23 73 8 67 -30 -11
-275 -73 -322 -81 -25 -4 -47 -8 -50 -9 -3 -1 -32 -5 -65 -9 -33 -5 -68 -10
-77 -12 -137 -24 -657 -24 -748 1 -8 2 -35 6 -60 9 -25 3 -56 8 -70 11 -14 3
-41 8 -60 11 -124 20 -375 96 -540 162 -271 109 -558 280 -769 456 -97 82
-139 121 -236 220 -305 310 -546 698 -683 1101 -52 152 -67 207 -102 378 -48
231 -55 305 -55 577 0 204 7 344 20 411 3 13 7 38 10 54 11 79 18 117 41 210
13 55 26 109 29 121 5 15 2 21 -9 21 -9 0 -17 -2 -19 -3z"/>
</g>
</svg>
